# Blender v2.90.1 OBJ File: ''
# www.blender.org
mtllib Box.mtl
o Cube_Cube.001
v 9.000000 -1.000000 1.000000
v 9.000000 1.000000 -1.003113
v 9.000000 -1.000000 -1.000000
v 9.000000 1.000000 -1.000000
v 11.000000 -1.000000 1.000000
v 11.000000 1.000000 -1.004038
v 11.000000 -1.000000 -1.000000
v 11.000000 1.000000 -1.000000
v 10.139427 0.916198 -0.988843
vt 0.375000 0.000000
vt 0.625000 0.000000
vt 0.625000 0.250000
vt 0.375000 0.250000
vt 0.625000 0.500000
vt 0.375000 0.500000
vt 0.375000 0.750000
vt 0.625000 0.886861
vt 0.625000 1.000000
vt 0.375000 1.000000
vt 0.125000 0.500000
vt 0.125000 0.750000
vt 0.761861 0.750000
vt 0.625000 0.750000
vt 0.875000 0.500000
vt 0.875000 0.750000
vn 1.0000 -0.0002 0.0000
vn 0.0000 0.0000 -1.0000
vn 1.0000 0.0000 0.0000
vn 0.0159 0.7155 0.6985
vn 0.0000 -1.0000 0.0000
vn 0.0969 -0.9953 0.0000
vn -0.0015 0.1113 0.9938
vn -1.0000 0.0002 0.0000
vn -0.0564 0.7067 0.7053
vn -1.0000 0.0000 0.0000
usemtl None
s off
f 1/1/1 2/2/1 4/3/1
f 3/4/2 4/3/2 8/5/2 7/6/2
f 7/6/3 8/5/3 5/7/3
f 5/7/4 9/8/4 2/9/4 1/10/4
f 3/11/5 7/6/5 5/7/5 1/12/5
f 8/5/6 9/13/6 6/14/6
f 9/13/7 8/5/7 4/15/7 2/16/7
f 5/7/8 8/5/8 6/14/8
f 9/8/9 5/7/9 6/14/9
f 4/3/10 3/4/10 1/1/10
